<?xml version="1.0" encoding="UTF-8"?>
<svg width="349px" height="72px" viewBox="0 0 349 72" version="1.1" xmlns="http://www.w3.org/2000/svg" xmlns:xlink="http://www.w3.org/1999/xlink">
    <title>Rectangle</title>
    <g id="Page-1" stroke="none" stroke-width="1" fill="none" fill-rule="evenodd">
        <rect id="Rectangle" fill="#FF6C37" x="0" y="0" width="348.988235" height="72" rx="8"></rect>
        <g id="getpostman-icon" transform="translate(13.000000, 4.000000)" fill-rule="nonzero">
            <path d="M57.327,12.44 C49.4157417,2.19549865 36.1120513,-2.27419347 23.6201055,1.11536478 C11.1281596,4.50492304 1.90837109,15.0861245 0.260388665,27.9244254 C-1.38759376,40.7627263 4.86081643,53.3294958 16.0916728,59.7642204 C27.3225292,66.1989449 41.3238032,65.2342417 51.566,57.32 C65.546,46.516 68.126,26.425 57.326,12.44 L57.327,12.44 Z" id="Path" fill="#FF6C37"></path>
            <path d="M42.793,20.388 L29.3,33.988 L25.487,30.068 C38.767,16.788 40.1,17.988 42.794,20.388 L42.793,20.388 Z" id="Path" fill="#FFFFFF"></path>
            <path d="M29.3,34.36 C29.1804931,34.3570611 29.0663835,34.3096343 28.98,34.227 L25.14,30.387 C24.9602951,30.2009791 24.9602951,29.9060209 25.14,29.72 C38.233,16.627 40.02,17.24 43.113,20.04 C43.218,20.124 43.277,20.252 43.273,20.387 C43.293,20.517 43.243,20.65 43.14,20.734 L29.647,34.228 C29.552,34.315 29.429,34.362 29.3,34.3610156 L29.3,34.36 Z M26.153,30.067 L29.3,33.214 L42.1,20.414 C41.1849406,19.2672344 39.5540834,18.9916208 38.313,19.774 C35.993,20.814 32.26,23.987 26.153,30.067 L26.153,30.067 Z" id="Shape" fill="#FF6C37"></path>
            <path d="M33.167,37.748 L29.487,33.988 L42.98,20.654 C46.607,24.201 41.22,30.121 33.167,37.747 L33.167,37.748 Z" id="Path" fill="#FFFFFF"></path>
            <path d="M33.167,38.228 C33.0489541,38.2186156 32.9369215,38.172052 32.847,38.095 L29.087,34.415 C29.0306057,34.2782527 29.0306057,34.1247473 29.087,33.988 C29.047,33.876 29.047,33.753 29.087,33.641 L42.58,20.148 C42.775,19.965 43.078,19.965 43.273,20.148 C44.158,20.962 44.643,22.12 44.606,23.321 C44.606,26.921 40.499,31.454 33.513,38.068 C33.4196691,38.1603664 33.2968479,38.2169986 33.166,38.228 L33.167,38.228 Z M30.18,33.988 L33.193,37 C38.526,31.96 43.62,26.76 43.646,23.24 C43.6750044,22.493777 43.4283221,21.7629851 42.953,21.187 L30.18,33.988 Z" id="Shape" fill="#FF6C37"></path>
            <path d="M25.593,30.148 L28.26,32.815 C28.2944401,32.8453733 28.3141699,32.8890799 28.3141699,32.935 C28.3141699,32.9809201 28.2944401,33.0246267 28.26,33.055 L22.633,34.255 C22.4,34.305 22.163,34.193 22.051,33.983 C21.939,33.773 21.981,33.513 22.153,33.348 L25.433,30.095 C25.433,30.095 25.54,30.095 25.593,30.148 L25.593,30.148 Z" id="Path" fill="#FFFFFF"></path>
            <path d="M22.5,34.788 C22.1384804,34.7834515 21.8052648,34.5914739 21.62,34.281 C21.41,33.884 21.485,33.395 21.807,33.081 L25.06,29.801 C25.3028931,29.5839025 25.6701069,29.5839025 25.913,29.801 L28.58,32.468 C28.738,32.618 28.8,32.845 28.74,33.055 C28.68,33.265 28.504,33.432 28.287,33.482 L22.66,34.682 L22.5,34.788 Z M25.487,30.735 L22.474,33.748 L27.461,32.681 L25.487,30.735 Z" id="Shape" fill="#FF6C37"></path>
            <path d="M49.967,12.894 C48.037,11.032 45.005,10.954 42.981,12.711 C40.957,14.468 40.611,17.484 42.187,19.654 C43.763,21.824 46.734,22.432 49.034,21.054 L45.407,17.427 L49.967,12.894 Z" id="Path" fill="#FFFFFF"></path>
            <path d="M46.367,22.28 C44.1002028,22.2509445 42.0702613,20.8698284 41.211,18.772 C40.351,16.674 40.827,14.266 42.411,12.654 C44.6320272,10.4737505 48.1899728,10.4737505 50.411,12.654 C50.513,12.74 50.571,12.867 50.571,13.001 C50.5705028,13.1343945 50.5121238,13.2610039 50.411,13.348 L46.091,17.428 L49.371,20.655 C49.4789027,20.7580405 49.5287186,20.9078629 49.504,21.055 C49.4880041,21.1965414 49.40997,21.3236674 49.291,21.402 C48.4098186,21.9527815 47.3968461,22.2567078 46.358,22.282 L46.367,22.28 Z M46.367,11.933 C44.467,11.943 42.767,13.086 42.054,14.833 C41.341,16.58 41.729,18.591 43.061,19.933 C44.417,21.296 46.461,21.688 48.234,20.92 L45.087,17.773 C44.982,17.689 44.923,17.561 44.927,17.426 C44.931,17.301 44.989,17.184 45.087,17.106 L49.247,12.919 C48.42,12.285 47.409,11.939 46.367,11.932 L46.367,11.933 Z" id="Shape" fill="#FF6C37"></path>
            <path d="M50.047,12.974 L45.487,17.507 L49.114,21.134 C49.4790429,20.9244368 49.8189184,20.673808 50.127,20.387 C52.103,18.287 52.067,15.019 50.047,12.974 L50.047,12.974 Z" id="Path" fill="#FFFFFF"></path>
            <path d="M49.033,21.534 C48.9116692,21.5405713 48.7939292,21.4916356 48.713,21.401 L45.086,17.774 C44.981,17.69 44.922,17.562 44.926,17.427 C44.93,17.302 44.988,17.185 45.086,17.107 L49.619,12.654 C49.7079318,12.5199303 49.8581164,12.43933 50.019,12.43933 C50.1798836,12.43933 50.3300682,12.5199303 50.419,12.654 C51.4940179,13.7072981 52.0998164,15.1489749 52.0998164,16.654 C52.0998164,18.1590251 51.4940179,19.6007019 50.419,20.654 C50.1050859,20.9869539 49.7459009,21.2740999 49.352,21.507 C49.2528229,21.5569879 49.1381508,21.5666633 49.032,21.534 L49.033,21.534 Z M46.1,17.428 L49.113,20.441 C49.3202619,20.2957289 49.5164665,20.135289 49.7,19.961 C50.5857258,19.0776857 51.0845908,17.878899 51.0870076,16.628 C51.0890385,15.5085433 50.6810083,14.4271032 49.94,13.588 L46.1,17.428 Z" id="Shape" fill="#FF6C37"></path>
            <path d="M43.353,20.948 C42.603,20.244 41.436,20.244 40.686,20.948 L28.607,33 L30.607,35.027 L43.38,23.827 C43.775,23.45 43.996,22.927 43.9901191,22.381 C43.984,21.835 43.754,21.316 43.353,20.947 L43.353,20.948 Z" id="Path" fill="#FFFFFF"></path>
            <path d="M30.5,35.508 C30.3804931,35.5050611 30.2663835,35.4576343 30.18,35.375 L28.153,33.348 C27.9732951,33.1619791 27.9732951,32.8670209 28.153,32.681 L40.233,20.654 C41.191,19.698 42.743,19.698 43.7,20.654 C44.18,21.134 44.44,21.789 44.42,22.467 C44.392,23.141 44.094,23.775 43.593,24.227 L30.82,35.427 C30.727,35.493 30.613,35.521 30.5,35.507 L30.5,35.508 Z M29.087,33 L30.42,34.36 L42.953,23.453 C43.263,23.183 43.448,22.797 43.46,22.386 C43.472,21.975 43.31,21.573 43.007,21.293 C42.424,20.713 41.483,20.713 40.9,21.293 L29.087,33 Z" id="Shape" fill="#FF6C37"></path>
            <path d="M19.247,46.734 C19.1769808,46.829176 19.1769808,46.958824 19.247,47.054 L19.78,49.374 C19.826,49.651 19.693,49.927 19.448,50.074 C19.2042418,50.216588 18.8963048,50.185471 18.686,49.997 L15.033,46.477 L26.42,35 L30.367,35 L33.034,37.667 C28.8736993,41.3044192 24.2349532,44.3550836 19.247,46.734 L19.247,46.734 Z" id="Path" fill="#FFFFFF"></path>
            <path d="M19.007,50.654 C18.705,50.648 18.407,50.524 18.207,50.307 L14.714,46.814 C14.609,46.73 14.55,46.602 14.554,46.467 C14.558,46.342 14.616,46.225 14.714,46.147 L26.18,34.654 C26.2442035,34.5857629 26.328105,34.5392675 26.42,34.521 L30.393,34.521 C30.4965267,34.4843978 30.6094733,34.4843978 30.713,34.521 L33.38,37.188 C33.483,37.283 33.533,37.423 33.513,37.561 C33.5168112,37.6953121 33.4576192,37.8236846 33.353,37.908 L33.14,38.095 C28.962918,41.5773152 24.3673704,44.5244453 19.46,46.868 L19.967,49.028 C20.0463734,49.3654602 19.9692806,49.7207194 19.7571725,49.9949268 C19.5450645,50.2691342 19.2205775,50.4330263 18.874,50.441 L19.007,50.654 Z M15.754,46.467 L18.9,49.64 C18.9606846,49.6941256 19.0523154,49.6941256 19.113,49.64 C19.1532168,49.5841535 19.1532168,49.5088465 19.113,49.453 L18.58,47.133 C18.494,46.79 18.66,46.433 18.98,46.28 C23.7554333,43.9677332 28.2325143,41.0843091 32.313,37.693 L30.126,35.506 L26.553,35.506 L15.754,46.467 Z" id="Shape" fill="#FF6C37"></path>
            <path d="M12.287,49.214 L14.954,46.547 L19.061,50.654 L12.528,50.201 C12.298,50.184 12.103,50.021 12.048,49.795 C11.993,49.569 12.09,49.335 12.288,49.215 L12.287,49.214 Z" id="Path" fill="#FFFFFF"></path>
            <path d="M19.14,51.054 L12.633,50.601 C12.247,50.565 11.915,50.301 11.779,49.948 C11.643,49.595 11.726,49.176 11.993,48.894 L14.66,46.227 C14.8460209,46.0472951 15.1409791,46.0472951 15.327,46.227 L19.407,50.307 C19.523,50.467 19.523,50.681 19.407,50.84 C19.345,50.94 19.251,51.015 19.14,51.053 L19.14,51.054 Z M12.633,49.561 L17.966,49.908 L15.033,47.161 L12.633,49.561 Z" id="Shape" fill="#FF6C37"></path>
            <polygon id="Path" fill="#FFFFFF" points="30.74 35.322 25.353 36.149 28.473 33.056"></polygon>
            <path d="M25.353,36.654 C25.17,36.659 25.003,36.554 24.926,36.387 C24.8094648,36.2284428 24.8094648,36.0125572 24.926,35.854 L28.019,32.734 C28.214,32.551 28.517,32.551 28.712,32.734 L30.98,35 C31.0724569,35.1466433 31.0724569,35.3333567 30.98,35.48 C30.9345727,35.6588642 30.7886749,35.7945921 30.607,35.827 L25.274,36.654 L25.353,36.654 Z M28.473,33.747 L26.74,35.48 L29.727,35.027 L28.473,33.747 Z" id="Shape" fill="#FF6C37"></path>
            <path d="M30.74,35.32 L26.98,35.8 C26.7733867,35.8468963 26.5604643,35.7527839 26.4560686,35.5684205 C26.3516729,35.3840572 26.3804989,35.1530547 26.527,35 L28.474,33.053 L30.74,35.32 Z" id="Path" fill="#FFFFFF"></path>
            <path d="M26.873,36.308 C26.518,36.305 26.193,36.111 26.02,35.801 C25.8107472,35.4259225 25.8760903,34.9574942 26.18,34.654 L28.127,32.707 C28.322,32.524 28.625,32.524 28.82,32.707 L31.087,34.974 C31.224735,35.1045005 31.2726704,35.303889 31.2093062,35.482736 C31.145942,35.6615831 30.9831713,35.7863201 30.794,35.801 L27.061,36.281 L26.873,36.308 Z M26.873,35.321 L29.7,34.974 L28.447,33.721 L26.847,35.321 L26.873,35.321 Z M50.073,16.041 C49.969019,15.8668242 49.7511221,15.7980599 49.566,15.881 C49.4768242,15.9261932 49.4097319,16.0055497 49.38,16.101 C49.35,16.196 49.36,16.299 49.406,16.388 C49.593,16.781 49.541,17.246 49.273,17.588 C49.203,17.654 49.173,17.745 49.173,17.841 C49.1739692,17.9347843 49.2095869,18.0248971 49.273,18.094 C49.3414297,18.1210181 49.4175703,18.1210181 49.486,18.094 C49.6125695,18.1258171 49.7463285,18.0845716 49.833,17.987 C50.2811473,17.4383199 50.374489,16.6810852 50.073,16.04 L50.073,16.041 Z" id="Shape" fill="#FF6C37"></path>
        </g>
        <text id="DOWNLOAD-COLLECTION" font-family="Arial-BoldMT, Arial" font-size="18" font-weight="bold" fill="#FFFFFF">
            <tspan x="77" y="42">DOWNLOAD COLLECTION</tspan>
        </text>
    </g>
</svg>